<svg width="112" height="112" viewBox="0 0 112 112" fill="none" xmlns="http://www.w3.org/2000/svg">
<g id="display-code" clip-path="url(#clip0_763_972)">
<path id="Vector" d="M112 88.6666V18.6666C112 10.948 105.719 4.66663 98 4.66663H14C6.28133 4.66663 0 10.948 0 18.6666V88.6666H51.3333V98H28V107.333H84V98H60.6667V88.6666H112ZM63.9613 31.3086L70.56 24.71L85.9507 40.1053C89.5673 43.722 89.5673 49.6113 85.9507 53.228L70.5553 68.6233L63.9567 62.0246L79.3473 46.6293L63.9567 31.3086H63.9613ZM48.0433 62.0246L41.4447 68.6233L26.054 53.228C22.4373 49.6113 22.4373 43.722 26.054 40.1053L41.4493 24.71L48.048 31.3086L32.6573 46.704L48.0433 62.0246Z" fill="white"/>
</g>
<defs>
<clipPath id="clip0_763_972">
<rect width="112" height="112" fill="white"/>
</clipPath>
</defs>
</svg>
