<svg width="112" height="112" viewBox="0 0 112 112" fill="none" xmlns="http://www.w3.org/2000/svg">
<g id="panorama" clip-path="url(#clip0_763_907)">
<path id="Vector" d="M0 77.4292V0.340576L6.47267 3.05658C6.734 3.16391 32.816 13.9999 56 13.9999C79.184 13.9999 105.266 3.16858 105.527 3.05658L112 0.340576V106.759L51.548 46.3072C45.92 40.6792 36.7593 40.6792 31.122 46.3072L0 77.4292ZM74.6667 37.3332C74.6667 42.4806 78.8527 46.6666 84 46.6666C89.1473 46.6666 93.3333 42.4806 93.3333 37.3332C93.3333 32.1859 89.1473 27.9999 84 27.9999C78.8527 27.9999 74.6667 32.1859 74.6667 37.3332ZM44.9493 52.9106C42.9567 50.9179 39.7133 50.9086 37.7207 52.9106L0 90.6266V112.117L6.31867 109.727C6.58 109.629 32.7273 99.8479 56 99.8479C72.604 99.8479 90.664 104.823 99.75 107.711L44.9493 52.9106Z" fill="white"/>
</g>
<defs>
<clipPath id="clip0_763_907">
<rect width="112" height="112" fill="white"/>
</clipPath>
</defs>
</svg>
