<svg width="112" height="112" viewBox="0 0 112 112" fill="none" xmlns="http://www.w3.org/2000/svg">
<g id="store" clip-path="url(#clip0_763_90)">
<path id="Vector" d="M112 32.6667L101.743 0H79.3333V23.3333H70V0H42V23.3333H32.6667V0H10.2573L0.112 31.654L0 37.3333C0 42.0233 1.79667 46.2653 4.66667 49.5507V98C4.66667 105.719 10.948 112 18.6667 112H56C63.7187 112 70 105.719 70 98V53.3773C71.736 52.3647 73.346 51.1653 74.6667 49.6673C78.0873 53.55 83.0993 56 88.6667 56H93.3333C94.9527 56 96.4973 55.7293 98 55.3373V112H107.333V49.5507C110.203 46.27 112 42.028 112 37.3333V32.6667ZM60.6667 79.3333H14V55.3373C15.5027 55.7293 17.0473 56 18.6667 56H23.3333C28.9333 56 33.908 53.4707 37.3333 49.5507C40.7587 53.4707 45.7333 56 51.3333 56H60.6667V79.3333Z" fill="white"/>
</g>
<defs>
<clipPath id="clip0_763_90">
<rect width="112" height="112" fill="white"/>
</clipPath>
</defs>
</svg>
