<svg width="112" height="112" viewBox="0 0 112 112" fill="none" xmlns="http://www.w3.org/2000/svg">
<g id="tachometer">
<path id="Vector" d="M55.9999 4.6666C1.74059 4.57793 -20.5987 75.4599 23.8559 106.484L25.0646 107.333H86.9353L88.1439 106.484C132.617 75.4459 110.231 4.57326 55.9999 4.6666ZM55.9999 69.9999C53.9587 69.9842 51.9789 69.2997 50.3638 68.0513C48.7488 66.8029 47.5875 65.0594 47.058 63.088C46.5285 61.1166 46.6599 59.0259 47.4321 57.1363C48.2042 55.2467 49.5746 53.6623 51.3333 52.6259V18.6666H60.6666V52.6259C62.4252 53.6623 63.7956 55.2467 64.5678 57.1363C65.34 59.0259 65.4714 61.1166 64.9418 63.088C64.4123 65.0594 63.2511 66.8029 61.636 68.0513C60.021 69.2997 58.0412 69.9842 55.9999 69.9999ZM83.7199 92.1713L77.5506 85.1713C95.2839 70.6766 90.5053 39.9979 69.9999 31.2059V21.1166C99.4699 30.8326 107.945 71.6706 83.7199 92.1713ZM13.9999 60.6666C14.0139 51.9904 16.7128 43.5311 21.726 36.4499C26.7393 29.3687 33.8213 24.0125 41.9999 21.1166V31.1966C21.4899 39.9886 16.7393 70.6673 34.4493 85.1619L28.2799 92.1619C23.8004 88.2266 20.2102 83.3826 17.748 77.9522C15.2858 72.5217 14.0081 66.6292 13.9999 60.6666Z" fill="white"/>
</g>
</svg>
