<svg width="112" height="112" viewBox="0 0 112 112" fill="none" xmlns="http://www.w3.org/2000/svg">
<g id="web site" clip-path="url(#clip0_763_79)">
<path id="Vector" d="M0 42V107.333H112V42H0ZM70 88.6667H23.3333V79.3334H70V88.6667ZM88.6667 70H23.3333V60.6667H88.6667V70ZM98 4.66669H14C10.287 4.66669 6.72601 6.14168 4.1005 8.76719C1.475 11.3927 0 14.9537 0 18.6667L0 32.6667H112V18.6667C112 14.9537 110.525 11.3927 107.899 8.76719C105.274 6.14168 101.713 4.66669 98 4.66669ZM18.6667 23.3334C17.7437 23.3334 16.8414 23.0597 16.074 22.5469C15.3066 22.0341 14.7084 21.3053 14.3552 20.4525C14.002 19.5998 13.9096 18.6615 14.0897 17.7563C14.2697 16.851 14.7142 16.0195 15.3668 15.3669C16.0195 14.7142 16.851 14.2698 17.7562 14.0897C18.6615 13.9096 19.5998 14.002 20.4525 14.3552C21.3052 14.7085 22.0341 15.3066 22.5469 16.074C23.0596 16.8415 23.3333 17.7437 23.3333 18.6667C23.3333 19.9044 22.8417 21.0913 21.9665 21.9665C21.0913 22.8417 19.9043 23.3334 18.6667 23.3334ZM32.6667 23.3334C31.7437 23.3334 30.8414 23.0597 30.074 22.5469C29.3066 22.0341 28.7084 21.3053 28.3552 20.4525C28.002 19.5998 27.9096 18.6615 28.0897 17.7563C28.2697 16.851 28.7142 16.0195 29.3668 15.3669C30.0195 14.7142 30.851 14.2698 31.7562 14.0897C32.6615 13.9096 33.5998 14.002 34.4525 14.3552C35.3052 14.7085 36.0341 15.3066 36.5469 16.074C37.0596 16.8415 37.3333 17.7437 37.3333 18.6667C37.3333 19.9044 36.8417 21.0913 35.9665 21.9665C35.0913 22.8417 33.9043 23.3334 32.6667 23.3334ZM46.6667 23.3334C45.7437 23.3334 44.8414 23.0597 44.074 22.5469C43.3066 22.0341 42.7084 21.3053 42.3552 20.4525C42.002 19.5998 41.9096 18.6615 42.0897 17.7563C42.2697 16.851 42.7142 16.0195 43.3668 15.3669C44.0195 14.7142 44.851 14.2698 45.7562 14.0897C46.6615 13.9096 47.5998 14.002 48.4525 14.3552C49.3052 14.7085 50.0341 15.3066 50.5469 16.074C51.0596 16.8415 51.3333 17.7437 51.3333 18.6667C51.3333 19.9044 50.8417 21.0913 49.9665 21.9665C49.0913 22.8417 47.9043 23.3334 46.6667 23.3334Z" fill="white"/>
</g>
<defs>
<clipPath id="clip0_763_79">
<rect width="112" height="112" fill="white"/>
</clipPath>
</defs>
</svg>
